<svg xmlns="http://www.w3.org/2000/svg" viewBox="0 0 1200 800" role="img" aria-labelledby="title desc">
  <title id="title">Science Paper Figure</title>
  <desc id="desc">Stylized preview image for the Science Paper Figure prompt case.</desc>
  <rect width="1200" height="800" fill="#ffffff"/>
  <rect x="58" y="58" width="1084" height="684" rx="28" fill="#ffffff" opacity=".45"/>
  <circle cx="940" cy="210" r="142" fill="#59a14f" opacity=".32"/>
  <circle cx="244" cy="602" r="174" fill="#1f4e79" opacity=".18"/>
  <rect x="130" y="150" width="430" height="300" rx="28" fill="#1f4e79"/>
  <rect x="182" y="204" width="326" height="34" rx="17" fill="#ffffff" opacity=".9"/>
  <rect x="182" y="272" width="250" height="26" rx="13" fill="#59a14f" opacity=".9"/>
  <rect x="182" y="326" width="302" height="26" rx="13" fill="#59a14f" opacity=".55"/>
  <path d="M668 520c60-168 152-252 276-252s196 84 216 252H668z" fill="#e15759" opacity=".92"/>
  <path d="M700 520c44-104 122-156 235-156 96 0 164 52 204 156H700z" fill="#59a14f" opacity=".76"/>
  <path d="M155 560h520" stroke="#e15759" stroke-width="18" stroke-linecap="round" opacity=".2"/>
  <text x="130" y="625" font-family="Arial, sans-serif" font-size="48" font-weight="700" fill="#e15759">Science Paper Figure</text>
  <text x="132" y="680" font-family="Arial, sans-serif" font-size="25" fill="#e15759" opacity=".72">diagram / scientific figure diagram</text>
</svg>
